HIERARCHY
ROOT hip
{
  OFFSET 0.00112043 5.09927 -9.65472
  CHANNELS 6 Xposition Yposition Zposition Zrotation Xrotation Yrotation
  JOINT abdomen
  {
    OFFSET 0 -1.186 -1.5018
    CHANNELS 3 Zrotation Xrotation Yrotation
    JOINT abdomen2
    {
      OFFSET 0 9.964 0.2134
      CHANNELS 3 Zrotation Xrotation Yrotation
      JOINT chest
      {
        OFFSET 0 13.134 -3.2573
        CHANNELS 3 Zrotation Xrotation Yrotation
        JOINT neck
        {
          OFFSET 0 20.686 -1.6905
          CHANNELS 3 Zrotation Xrotation Yrotation
          JOINT head
          {
            OFFSET 0 7.238 -0.1237
            CHANNELS 3 Zrotation Xrotation Yrotation
            End Site
            {
              OFFSET 0 0 0
            }
          }
        }
        JOINT lCollar
        {
          OFFSET 1.7069 20.075 5.0056
          CHANNELS 3 Zrotation Xrotation Yrotation
          JOINT lShldr
          {
            OFFSET 13.6458 -0.047 -4.849
            CHANNELS 3 Zrotation Xrotation Yrotation
            JOINT lForeArm
            {
              OFFSET 28.3255 -0.9759 2.2888
              CHANNELS 3 Zrotation Xrotation Yrotation
              JOINT lHand
              {
                OFFSET 22.1583 -0.53 10.8316
                CHANNELS 3 Zrotation Xrotation Yrotation
                JOINT lThumb1
                {
                  OFFSET 0.786 0.112 2.5817
                  CHANNELS 3 Zrotation Xrotation Yrotation
                  JOINT lThumb2
                  {
                    OFFSET 0.3601 -0.878 4.2331
                    CHANNELS 3 Zrotation Xrotation Yrotation
                    JOINT lThumb2_End
                    {
                      OFFSET 1.8127 -1.216 2.2227
                      CHANNELS 3 Zrotation Xrotation Yrotation
                      End Site
                      {
                        OFFSET 0.0181 -0.0122 0.0222
                      }
                    }
                  }
                }
                JOINT lCarpal1
                {
                  OFFSET 0.9571 1.114 1.7695
                  CHANNELS 3 Zrotation Xrotation Yrotation
                  JOINT lIndex1
                  {
                    OFFSET 4.1246 0.487 4.1451
                    CHANNELS 3 Zrotation Xrotation Yrotation
                    JOINT lIndex2
                    {
                      OFFSET 3.4052 -1.454 2.7682
                      CHANNELS 3 Zrotation Xrotation Yrotation
                      JOINT lIndex2_End
                      {
                        OFFSET 1.4531 -1.795 1.2713
                        CHANNELS 3 Zrotation Xrotation Yrotation
                        End Site
                        {
                          OFFSET 0.0145 -0.0179 0.0127
                        }
                      }
                    }
                  }
                  JOINT lMid1
                  {
                    OFFSET 5.6954 0.21 2.1184
                    CHANNELS 3 Zrotation Xrotation Yrotation
                    JOINT lMid2
                    {
                      OFFSET 3.9766 -1.54 2.3863
                      CHANNELS 3 Zrotation Xrotation Yrotation
                      JOINT lMid2_End
                      {
                        OFFSET 1.4042 -1.926 1.125
                        CHANNELS 3 Zrotation Xrotation Yrotation
                        End Site
                        {
                          OFFSET 0.014 -0.0193 0.0113
                        }
                      }
                    }
                  }
                }
                JOINT lCarpal2
                {
                  OFFSET 2.0956 0.66 -0.3894
                  CHANNELS 3 Zrotation Xrotation Yrotation
                  JOINT lRing1
                  {
                    OFFSET 5.0395 -0.09 2.4971
                    CHANNELS 3 Zrotation Xrotation Yrotation
                    JOINT lRing2
                    {
                      OFFSET 3.7921 -1.552 1.4806
                      CHANNELS 3 Zrotation Xrotation Yrotation
                      JOINT lRing2_End
                      {
                        OFFSET 1.4655 -1.808 0.9609
                        CHANNELS 3 Zrotation Xrotation Yrotation
                        End Site
                        {
                          OFFSET 0.0147 -0.0181 0.0096
                        }
                      }
                    }
                  }
                  JOINT lPinky1
                  {
                    OFFSET 4.9141 -1.269 0.3591
                    CHANNELS 3 Zrotation Xrotation Yrotation
                    JOINT lPinky2
                    {
                      OFFSET 3.1477 -1.685 0.8462
                      CHANNELS 3 Zrotation Xrotation Yrotation
                      JOINT lPinky2_End
                      {
                        OFFSET 0.8055 -1.585 0.7955
                        CHANNELS 3 Zrotation Xrotation Yrotation
                        End Site
                        {
                          OFFSET 0.0081 -0.0158 0.008
                        }
                      }
                    }
                  }
                }
              }
            }
          }
        }
        JOINT rCollar
        {
          OFFSET -1.7069 20.075 5.0056
          CHANNELS 3 Zrotation Xrotation Yrotation
          JOINT rShldr
          {
            OFFSET -13.6458 -0.047 -4.849
            CHANNELS 3 Zrotation Xrotation Yrotation
            JOINT rForeArm
            {
              OFFSET -28.3255 -0.9759 2.2888
              CHANNELS 3 Zrotation Xrotation Yrotation
              JOINT rHand
              {
                OFFSET -22.1583 -0.53 10.8316
                CHANNELS 3 Zrotation Xrotation Yrotation
                JOINT rThumb1
                {
                  OFFSET -0.786 0.112 2.5817
                  CHANNELS 3 Zrotation Xrotation Yrotation
                  JOINT rThumb2
                  {
                    OFFSET -0.3601 -0.878 4.2331
                    CHANNELS 3 Zrotation Xrotation Yrotation
                    JOINT rThumb2_End
                    {
                      OFFSET -1.8127 -1.216 2.2227
                      CHANNELS 3 Zrotation Xrotation Yrotation
                      End Site
                      {
                        OFFSET -0.0181 -0.0122 0.0222
                      }
                    }
                  }
                }
                JOINT rCarpal1
                {
                  OFFSET -0.9571 1.114 1.7695
                  CHANNELS 3 Zrotation Xrotation Yrotation
                  JOINT rIndex1
                  {
                    OFFSET -4.1246 0.487 4.1451
                    CHANNELS 3 Zrotation Xrotation Yrotation
                    JOINT rIndex2
                    {
                      OFFSET -3.4052 -1.454 2.7682
                      CHANNELS 3 Zrotation Xrotation Yrotation
                      JOINT rIndex2_End
                      {
                        OFFSET -1.4531 -1.795 1.2713
                        CHANNELS 3 Zrotation Xrotation Yrotation
                        End Site
                        {
                          OFFSET -0.0145 -0.018 0.0127
                        }
                      }
                    }
                  }
                  JOINT rMid1
                  {
                    OFFSET -5.6954 0.21 2.1184
                    CHANNELS 3 Zrotation Xrotation Yrotation
                    JOINT rMid2
                    {
                      OFFSET -3.9766 -1.54 2.3863
                      CHANNELS 3 Zrotation Xrotation Yrotation
                      JOINT rMid2_End
                      {
                        OFFSET -1.4042 -1.926 1.125
                        CHANNELS 3 Zrotation Xrotation Yrotation
                        End Site
                        {
                          OFFSET -0.014 -0.0193 0.0113
                        }
                      }
                    }
                  }
                }
                JOINT rCarpal2
                {
                  OFFSET -2.0956 0.66 -0.3894
                  CHANNELS 3 Zrotation Xrotation Yrotation
                  JOINT rRing1
                  {
                    OFFSET -5.0395 -0.09 2.4971
                    CHANNELS 3 Zrotation Xrotation Yrotation
                    JOINT rRing2
                    {
                      OFFSET -3.7921 -1.552 1.4806
                      CHANNELS 3 Zrotation Xrotation Yrotation
                      JOINT rRing2_End
                      {
                        OFFSET -1.4655 -1.808 0.9609
                        CHANNELS 3 Zrotation Xrotation Yrotation
                        End Site
                        {
                          OFFSET -0.0147 -0.0181 0.0096
                        }
                      }
                    }
                  }
                  JOINT rPinky1
                  {
                    OFFSET -4.9141 -1.269 0.3592
                    CHANNELS 3 Zrotation Xrotation Yrotation
                    JOINT rPinky2
                    {
                      OFFSET -3.1477 -1.685 0.8462
                      CHANNELS 3 Zrotation Xrotation Yrotation
                      JOINT rPinky2_End
                      {
                        OFFSET -0.8055 -1.585 0.7955
                        CHANNELS 3 Zrotation Xrotation Yrotation
                        End Site
                        {
                          OFFSET -0.0081 -0.0158 0.008
                        }
                      }
                    }
                  }
                }
              }
            }
          }
        }
      }
    }
  }
  JOINT lThigh
  {
    OFFSET 8.367 -8.2066 0.5982
    CHANNELS 3 Zrotation Xrotation Yrotation
    JOINT lShin
    {
      OFFSET 2.1923 -43.463 -0.4932
      CHANNELS 3 Zrotation Xrotation Yrotation
      JOINT lFoot
      {
        OFFSET 0.7333 -45.8593 -2.6451
        CHANNELS 3 Zrotation Xrotation Yrotation
        End Site
        {
          OFFSET 2.6618 -4.2699 12.3931
        }
      }
    }
  }
  JOINT rThigh
  {
    OFFSET -8.367 -8.2066 0.5982
    CHANNELS 3 Zrotation Xrotation Yrotation
    JOINT rShin
    {
      OFFSET -2.1923 -43.463 -0.4931
      CHANNELS 3 Zrotation Xrotation Yrotation
      JOINT rFoot
      {
        OFFSET -0.7333 -45.8593 -2.6451
        CHANNELS 3 Zrotation Xrotation Yrotation
        End Site
        {
          OFFSET -2.6618 -4.2699 12.3931
        }
      }
    }
  }
}
MOTION
Frames:	6
Frame Time:	0.0333333
0 91.7903 2.51682 0 0 -0 0 0 -0 0 0 -0 0 0 -0 0 0 -0 0 0 -0 0 0 -0 1.66051 0.0835086 5.75766 -0.0175111 0.895433 15.7816 7.95139e-016 -1.98785e-016 -0 5.46658e-016 -3.97569e-016 -0 5.96354e-016 0 -0 3.97569e-016 1.98785e-016 9.54166e-015 1.49089e-016 -3.97569e-016 -0 6.4605e-016 0 3.18055e-015 5.96354e-016 0 3.18055e-015 8.94531e-016 -1.98785e-016 6.36111e-015 6.4605e-016 0 3.18055e-015 5.96354e-016 0 3.18055e-015 8.94531e-016 -1.98785e-016 6.36111e-015 1.49089e-016 -3.97569e-016 -0 6.4605e-016 0 3.18055e-015 5.96354e-016 0 3.18055e-015 8.94531e-016 -1.98785e-016 6.36111e-015 6.4605e-016 0 3.18055e-015 5.96354e-016 0 3.18055e-015 8.94531e-016 -1.98785e-016 6.36111e-015 0 0 -0 -1.4496 0.0636048 -5.0245 -1.74811 1.20616 -16.8394 -1.19271e-015 1.98785e-016 -3.18055e-015 -3.97569e-016 1.98785e-016 -3.18055e-015 -2.98177e-016 1.98785e-016 -3.18055e-015 -2.98177e-016 3.97569e-016 -0 4.96962e-016 0 -6.36111e-015 -9.93923e-017 3.97569e-016 -0 -8.94531e-016 5.96354e-016 -0 -3.97569e-016 3.97569e-016 -0 -9.93923e-017 3.97569e-016 -0 -8.94531e-016 5.96354e-016 -0 -3.97569e-016 3.97569e-016 -0 4.96962e-016 0 -6.36111e-015 -9.93923e-017 3.97569e-016 -0 -8.94531e-016 5.96354e-016 -0 -3.97569e-016 3.97569e-016 -0 -9.93923e-017 3.97569e-016 -0 -8.94531e-016 5.96354e-016 -0 -3.97569e-016 3.97569e-016 -0 -4.66111 -0.998717 0.12318 0.00986924 1.54847 0.176523 4.65186 -0.572283 -0.254274 4.66111 -0.998765 -0.123176 -0.00986867 1.54869 -0.176537 -4.65186 -0.572453 0.25427 
-9.43421 29.5866 0.244899 66.6667 0 -0 -6.6712 -0.142692 0.0436032 -13.3423 -0.289483 0.0703347 -13.3424 -0.289483 0.0703347 -11.4322 19.9813 25.9494 0.0738346 0.0505884 0.0712136 -5.92528 -0.0359679 0.198733 -10.964 20.7291 33.8268 -0.791593 -1.27813 -54.568 -37.6226 13.231 3.25128 -5.70994e-007 -3.17263e-007 1.57118e-006 -5.70994e-007 -3.17263e-007 1.57118e-006 -5.70994e-007 -3.17263e-007 1.57118e-006 -3.77691e-015 6.36111e-015 3.97569e-015 -5.70994e-007 -3.17263e-007 1.57118e-006 -5.70994e-007 -3.17263e-007 1.57118e-006 -5.70994e-007 -3.17263e-007 1.57118e-006 -5.70994e-007 -3.17263e-007 1.57118e-006 -5.70994e-007 -3.17263e-007 1.57118e-006 -5.70994e-007 -3.17263e-007 1.57118e-006 -3.77691e-015 6.36111e-015 3.97569e-015 -5.70994e-007 -3.17263e-007 1.57118e-006 -5.70994e-007 -3.17263e-007 1.57118e-006 -5.70994e-007 -3.17263e-007 1.57118e-006 -5.70994e-007 -3.17263e-007 1.57118e-006 -5.70994e-007 -3.17263e-007 1.57118e-006 -5.70994e-007 -3.17263e-007 1.57118e-006 5.9253 -0.144231 2.3004e-008 20.386 11.6549 -31.9758 -39.5813 -10.9997 74.9004 1.76957 9.16523 0.760021 -9.54166e-015 -6.36111e-015 3.18055e-015 -8.82781e-031 -7.95139e-015 -6.36111e-015 3.18055e-015 -6.36111e-015 -3.18055e-015 -3.18055e-015 1.59028e-015 3.18055e-015 -3.18055e-015 -7.95139e-015 -0 -3.18055e-015 -7.95139e-015 -3.18055e-015 3.53113e-031 -6.36111e-015 3.18055e-015 -3.18055e-015 -7.95139e-015 -0 -3.18055e-015 -7.95139e-015 -3.18055e-015 3.53113e-031 -6.36111e-015 3.18055e-015 -3.18055e-015 1.59028e-015 3.18055e-015 -3.18055e-015 -7.95139e-015 -0 -3.18055e-015 -7.95139e-015 -3.18055e-015 3.53113e-031 -6.36111e-015 3.18055e-015 -3.18055e-015 -7.95139e-015 -0 -3.18055e-015 -7.95139e-015 -3.18055e-015 3.53113e-031 -6.36111e-015 3.18055e-015 1.03351 -47.9781 54.1969 -2.18867 41.115 4.47886 12.6843 30.5454 -3.79382 -1.17686 -20.9881 -1.88973 1.29713 25.1348 -1.98191 -10.4005 35.9221 3.67702 
-10.5356 -1.2981 0.236641 96.6667 0 -0 -9.67249 -0.23046 0.0727979 -19.3449 -0.469875 0.105841 -19.3449 -0.469875 0.105841 -22.6869 25.6019 39.7785 0.106891 0.0732725 0.103148 -8.59155 -0.0521532 0.288162 -23.3139 25.9128 48.8137 -2.10103 -1.4279 -86.2461 -55.0918 17.1944 7.36002 3.37985e-007 5.02299e-007 9.0452e-007 -1.98785e-015 3.18055e-015 1.11319e-014 -1.9713e-006 -1.56413e-006 1.85133e-006 1.59028e-015 0 3.57812e-015 3.37985e-007 5.02299e-007 9.0452e-007 -3.57812e-015 0 4.57205e-015 -1.9713e-006 -1.56413e-006 1.85133e-006 3.37985e-007 5.02299e-007 9.0452e-007 -3.57812e-015 0 4.57205e-015 -1.9713e-006 -1.56413e-006 1.85133e-006 1.59028e-015 0 3.57812e-015 3.37985e-007 5.02299e-007 9.0452e-007 -3.57812e-015 0 4.57205e-015 -1.9713e-006 -1.56413e-006 1.85133e-006 3.37985e-007 5.02299e-007 9.0452e-007 -3.57812e-015 0 4.57205e-015 -1.9713e-006 -1.56413e-006 1.85133e-006 8.59169 -0.209135 1.87083e-007 33.571 14.7692 -44.7967 -50.498 -55.0687 81.5407 2.50581 13.275 1.24854 -4.65781e-007 -7.07057e-007 7.53755e-008 -1.63862e-006 -9.48333e-007 2.30539e-007 -1.8799e-006 2.24506e-007 2.34952e-007 1.19271e-015 1.98785e-015 3.18055e-015 -4.65781e-007 -7.07057e-007 7.53755e-008 -1.63862e-006 -9.48333e-007 2.30539e-007 -1.8799e-006 2.24506e-007 2.34952e-007 -4.65781e-007 -7.07057e-007 7.53755e-008 -1.63862e-006 -9.48333e-007 2.30539e-007 -1.8799e-006 2.24506e-007 2.34952e-007 1.19271e-015 1.98785e-015 3.18055e-015 -4.65781e-007 -7.07057e-007 7.53755e-008 -1.63862e-006 -9.48333e-007 2.30539e-007 -1.8799e-006 2.24506e-007 2.34952e-007 -4.65781e-007 -7.07057e-007 7.53755e-008 -1.63862e-006 -9.48333e-007 2.30539e-007 -1.8799e-006 2.24506e-007 2.34952e-007 21.7239 -42.736 86.9314 -3.24409 52.3672 4.85314 17.9491 47.9677 -5.43671 -3.91663 -32.7548 -3.00717 3.11426 42.3104 -3.7962 -15.703 48.4111 6.34178 
-10.5729 5.59419 0.171899 90 0 -0 -9.00558 -0.209687 0.0656848 -18.0111 -0.427025 0.097722 -18.0111 -0.427025 0.097722 -19.9825 24.6541 36.6699 0.0992677 0.0680463 0.0957837 -7.99905 -0.0485562 0.268289 -20.2714 25.1049 45.3705 -2.38951 -1.36696 -79.2046 -50.2485 15.285 5.77498 7.55382e-015 -1.27222e-014 6.4605e-016 -6.01324e-015 -9.54166e-015 1.2424e-015 -5.1684e-015 -3.18055e-015 -9.93923e-017 8.69683e-015 0 -1.98785e-016 -3.18055e-015 -9.54166e-015 3.77691e-015 -6.41081e-015 -3.18055e-015 -3.37934e-015 -3.72721e-015 -9.54166e-015 2.43511e-015 -3.18055e-015 -9.54166e-015 3.77691e-015 -6.41081e-015 -3.18055e-015 -3.37934e-015 -3.72721e-015 -9.54166e-015 2.43511e-015 8.69683e-015 0 -1.98785e-016 -3.18055e-015 -9.54166e-015 3.77691e-015 -6.41081e-015 -3.18055e-015 -3.37934e-015 -3.72721e-015 -9.54166e-015 2.43511e-015 -3.18055e-015 -9.54166e-015 3.77691e-015 -6.41081e-015 -3.18055e-015 -3.37934e-015 -3.72721e-015 -9.54166e-015 2.43511e-015 7.99917 -0.194711 -9.95944e-008 30.4947 14.2473 -41.9137 -47.4904 -44.6741 83.0306 2.34662 12.3628 1.13154 -1.39453e-006 9.63895e-007 7.85097e-008 -2.40974e-007 -3.48632e-007 4.72675e-008 1.15356e-006 -1.31253e-006 -3.12423e-008 1.98785e-015 -1.39149e-015 -3.18055e-015 -1.39453e-006 9.63895e-007 7.85097e-008 -2.40974e-007 -3.48632e-007 4.72675e-008 1.15356e-006 -1.31253e-006 -3.12423e-008 -1.39453e-006 9.63895e-007 7.85097e-008 -2.40974e-007 -3.48632e-007 4.72675e-008 1.15356e-006 -1.31253e-006 -3.12423e-008 1.98785e-015 -1.39149e-015 -3.18055e-015 -1.39453e-006 9.63895e-007 7.85097e-008 -2.40974e-007 -3.48632e-007 4.72675e-008 1.15356e-006 -1.31253e-006 -3.12423e-008 -1.39453e-006 9.63895e-007 7.85097e-008 -2.40974e-007 -3.48632e-007 4.72675e-008 1.15356e-006 -1.31253e-006 -3.12423e-008 17.979 -45.2673 81.0578 -2.96298 49.7854 4.4542 16.385 44.2658 -4.59748 -3.35422 -30.1998 -2.73398 2.66897 38.5378 -3.28463 -14.2955 45.677 5.59446 
-10.5729 5.59419 0.171897 90 0 -0 -9.00558 -0.20969 0.0656858 -18.0111 -0.427025 0.097722 -18.0111 -0.427025 0.097722 -20.0539 24.6652 36.7369 0.0990505 0.0678908 0.0955784 -7.99905 -0.0485562 0.268289 -20.2714 25.1049 45.3703 -2.86675 -1.27625 -79.2024 -49.5171 14.3336 5.34645 8.94531e-016 -3.18055e-015 1.06101e-014 -4.02539e-015 -3.18055e-015 7.90169e-015 -5.01931e-015 -9.54166e-015 1.39149e-015 9.44227e-016 3.18055e-015 1.81391e-015 -1.2424e-015 0 1.14301e-014 1.88845e-015 -3.18055e-015 1.01877e-015 -3.18055e-015 -9.54166e-015 -6.4605e-016 -1.2424e-015 0 1.14301e-014 1.88845e-015 -3.18055e-015 1.01877e-015 -3.18055e-015 -9.54166e-015 -6.4605e-016 9.44227e-016 3.18055e-015 1.81391e-015 -1.2424e-015 0 1.14301e-014 1.88845e-015 -3.18055e-015 1.01877e-015 -3.18055e-015 -9.54166e-015 -6.4605e-016 -1.2424e-015 0 1.14301e-014 1.88845e-015 -3.18055e-015 1.01877e-015 -3.18055e-015 -9.54166e-015 -6.4605e-016 7.99917 -0.194711 -1.05148e-007 30.4947 14.2473 -41.9137 -47.4901 -44.6739 83.031 2.34677 12.3628 1.13152 -2.40975e-007 -3.48632e-007 4.72685e-008 7.95139e-016 3.18055e-015 -3.18055e-015 -2.40975e-007 -3.48632e-007 4.72686e-008 -1.98785e-015 3.97569e-016 -6.36111e-015 -2.40975e-007 -3.48632e-007 4.72685e-008 0 1.19271e-015 -0 -2.40975e-007 -3.48632e-007 4.72686e-008 -2.40975e-007 -3.48632e-007 4.72685e-008 0 1.19271e-015 -0 -2.40975e-007 -3.48632e-007 4.72686e-008 -1.98785e-015 3.97569e-016 -6.36111e-015 -2.40975e-007 -3.48632e-007 4.72685e-008 0 1.19271e-015 -0 -2.40975e-007 -3.48632e-007 4.72686e-008 -2.40975e-007 -3.48632e-007 4.72685e-008 0 1.19271e-015 -0 -2.40975e-007 -3.48632e-007 4.72686e-008 17.979 -45.2672 81.0578 -2.96298 49.7853 4.45418 16.3851 44.2658 -4.59748 -3.35424 -30.1998 -2.73398 2.669 38.5377 -3.28465 -14.2955 45.677 5.59446 
-10.5729 5.59418 0.171898 90 0 -0 -9.00558 -0.209679 0.0656813 -18.0111 -0.427025 0.097722 -18.0111 -0.427025 0.0977219 -20.1259 24.676 36.8042 0.0988421 0.067742 0.0953636 -7.99905 -0.0485562 0.268289 -20.2713 25.105 45.3702 -3.34572 -1.18524 -79.1994 -48.7929 13.3729 4.93049 -1.59028e-015 3.18055e-015 -3.47873e-015 -3.08116e-015 3.18055e-015 4.07509e-015 -2.98177e-015 -9.54166e-015 3.97569e-016 3.97569e-015 3.18055e-015 -2.08724e-015 -2.5842e-015 -3.18055e-015 3.67752e-015 -9.44227e-015 -6.36111e-015 -3.18055e-015 -5.76476e-015 6.36111e-015 -1.19271e-015 -2.5842e-015 -3.18055e-015 3.67752e-015 -9.44227e-015 -6.36111e-015 -3.18055e-015 -5.76476e-015 6.36111e-015 -1.19271e-015 3.97569e-015 3.18055e-015 -2.08724e-015 -2.5842e-015 -3.18055e-015 3.67752e-015 -9.44227e-015 -6.36111e-015 -3.18055e-015 -5.76476e-015 6.36111e-015 -1.19271e-015 -2.5842e-015 -3.18055e-015 3.67752e-015 -9.44227e-015 -6.36111e-015 -3.18055e-015 -5.76476e-015 6.36111e-015 -1.19271e-015 7.99916 -0.194711 -1.31724e-007 30.4947 14.2473 -41.9137 -47.4898 -44.6738 83.0314 2.34691 12.3629 1.13153 -4.81951e-007 -6.97262e-007 9.45393e-008 -1.98785e-015 -7.95139e-016 -9.54166e-015 -1.19271e-015 -1.78906e-015 -9.54166e-015 -7.95139e-016 -9.93923e-016 3.18055e-015 -4.81951e-007 -6.97262e-007 9.45393e-008 -1.21382e-031 -2.18663e-015 -3.18055e-015 3.97569e-016 -2.18663e-015 -3.18055e-015 -4.81951e-007 -6.97262e-007 9.45393e-008 -1.21382e-031 -2.18663e-015 -3.18055e-015 3.97569e-016 -2.18663e-015 -3.18055e-015 -7.95139e-016 -9.93923e-016 3.18055e-015 -4.81951e-007 -6.97262e-007 9.45393e-008 -1.21382e-031 -2.18663e-015 -3.18055e-015 3.97569e-016 -2.18663e-015 -3.18055e-015 -4.81951e-007 -6.97262e-007 9.45393e-008 -1.21382e-031 -2.18663e-015 -3.18055e-015 3.97569e-016 -2.18663e-015 -3.18055e-015 17.9789 -45.2672 81.0577 -2.96296 49.7852 4.45417 16.3851 44.2658 -4.5975 -3.35423 -30.1998 -2.73398 2.66898 38.5377 -3.28464 -14.2955 45.677 5.59445 
